        <svg xmlns="http://www.w3.org/2000/svg" viewBox="0 0 400 400" width="400" height="400" preserveAspectRatio="xMidYMid meet" style="width: 100%; height: 100%; transform: translate3d(0px, 0px, 0px);"><defs><clipPath id="__lottie_element_2"><rect width="400" height="400" x="0" y="0"></rect></clipPath></defs><g clip-path="url(#__lottie_element_2)"><g transform="matrix(2.540335178375244,-0.22180376946926117,0.22180376946926117,2.540335178375244,-14.875946044921875,-1415.0894775390625)" opacity="1" style="display: block;"><g opacity="1" transform="matrix(1,0,0,1,31.489999771118164,654.9739990234375)"><path fill="rgb(255,191,140)" fill-opacity="1" d=" M-4.501999855041504,-3.7829999923706055 C-4.501999855041504,-3.7829999923706055 -4.501999855041504,-3.7829999923706055 -4.501999855041504,-3.7829999923706055 C-3.2820000648498535,-5.235000133514404 -1.1150000095367432,-5.422999858856201 0.3370000123977661,-4.203000068664551 C0.3370000123977661,-4.203000068664551 4.081999778747559,-1.055999994277954 4.081999778747559,-1.055999994277954 C5.533999919891357,0.164000004529953 5.7220001220703125,2.3310000896453857 4.501999855041504,3.7829999923706055 C4.501999855041504,3.7829999923706055 4.501999855041504,3.7829999923706055 4.501999855041504,3.7829999923706055 C3.2820000648498535,5.235000133514404 1.1150000095367432,5.422999858856201 -0.3370000123977661,4.203000068664551 C-0.3370000123977661,4.203000068664551 -4.081999778747559,1.055999994277954 -4.081999778747559,1.055999994277954 C-5.533999919891357,-0.164000004529953 -5.7220001220703125,-2.3310000896453857 -4.501999855041504,-3.7829999923706055z"></path></g><g opacity="1" transform="matrix(1,0,0,1,35.332000732421875,650.4019775390625)"><path fill="rgb(255,191,140)" fill-opacity="1" d=" M-4.501999855041504,-3.7829999923706055 C-4.501999855041504,-3.7829999923706055 -4.501999855041504,-3.7829999923706055 -4.501999855041504,-3.7829999923706055 C-3.2820000648498535,-5.235000133514404 -1.1150000095367432,-5.422999858856201 0.3370000123977661,-4.203000068664551 C0.3370000123977661,-4.203000068664551 4.081999778747559,-1.055999994277954 4.081999778747559,-1.055999994277954 C5.533999919891357,0.164000004529953 5.7220001220703125,2.3310000896453857 4.501999855041504,3.7829999923706055 C4.501999855041504,3.7829999923706055 4.501999855041504,3.7829999923706055 4.501999855041504,3.7829999923706055 C3.2820000648498535,5.235000133514404 1.1150000095367432,5.422999858856201 -0.3370000123977661,4.203000068664551 C-0.3370000123977661,4.203000068664551 -4.081999778747559,1.055999994277954 -4.081999778747559,1.055999994277954 C-5.533999919891357,-0.164000004529953 -5.7220001220703125,-2.3310000896453857 -4.501999855041504,-3.7829999923706055z"></path></g><g opacity="1" transform="matrix(1,0,0,1,39.23099899291992,645.7620239257812)"><path fill="rgb(255,191,140)" fill-opacity="1" d=" M-4.501999855041504,-3.7829999923706055 C-4.501999855041504,-3.7829999923706055 -4.501999855041504,-3.7829999923706055 -4.501999855041504,-3.7829999923706055 C-3.2820000648498535,-5.235000133514404 -1.1150000095367432,-5.422999858856201 0.3370000123977661,-4.203000068664551 C0.3370000123977661,-4.203000068664551 4.081999778747559,-1.055999994277954 4.081999778747559,-1.055999994277954 C5.533999919891357,0.164000004529953 5.7220001220703125,2.3310000896453857 4.501999855041504,3.7829999923706055 C4.501999855041504,3.7829999923706055 4.501999855041504,3.7829999923706055 4.501999855041504,3.7829999923706055 C3.2820000648498535,5.235000133514404 1.1150000095367432,5.422999858856201 -0.3370000123977661,4.203000068664551 C-0.3370000123977661,4.203000068664551 -4.081999778747559,1.055999994277954 -4.081999778747559,1.055999994277954 C-5.533999919891357,-0.164000004529953 -5.7220001220703125,-2.3310000896453857 -4.501999855041504,-3.7829999923706055z"></path></g><g opacity="1" transform="matrix(1,0,0,1,21.864999771118164,642.6480102539062)"><path fill="rgb(255,191,140)" fill-opacity="1" d=" M9.567000389099121,-7.0370001792907715 C9.567000389099121,-7.0370001792907715 21.003000259399414,1.625 21.003000259399414,1.625 C21.006000518798828,1.649999976158142 21.006999969482422,1.6640000343322754 21.010000228881836,1.6890000104904175 C21.010000228881836,1.6890000104904175 8.906999588012695,16.093000411987305 8.906999588012695,16.093000411987305 C8.881999969482422,16.094999313354492 8.868000030517578,16.094999313354492 8.843000411987305,16.097000122070312 C8.843000411987305,16.097000122070312 -6.113999843597412,2.1760001182556152 -6.113999843597412,2.1760001182556152 C-6.113999843597412,2.1760001182556152 -21.010000228881836,-1.5470000505447388 -21.010000228881836,-1.5470000505447388 C-21.010000228881836,-1.5470000505447388 -19.58799934387207,-7.275000095367432 -19.58799934387207,-7.275000095367432 C-19.58799934387207,-7.275000095367432 -16.95400047302246,-16.097000122070312 -16.95400047302246,-16.097000122070312 C-16.94499969482422,-16.10700035095215 -5.054999828338623,-14.98799991607666 -5.054999828338623,-14.98799991607666 C-5.054999828338623,-14.98799991607666 5.11899995803833,-10.406000137329102 9.567000389099121,-7.0370001792907715z"></path></g><g opacity="1" transform="matrix(1,0,0,1,32.428001403808594,652.0239868164062)"><path stroke-linecap="butt" stroke-linejoin="bevel" fill-opacity="0" stroke="rgb(247,247,247)" stroke-opacity="1" stroke-width="1" d=" M-2.671999931335449,-2.244999885559082 C-2.671999931335449,-2.244999885559082 2.671999931335449,2.244999885559082 2.671999931335449,2.244999885559082"></path></g><g opacity="1" transform="matrix(1,0,0,1,36.354000091552734,647.3510131835938)"><path stroke-linecap="butt" stroke-linejoin="bevel" fill-opacity="0" stroke="rgb(247,247,247)" stroke-opacity="1" stroke-width="1" d=" M-2.671999931335449,-2.244999885559082 C-2.671999931335449,-2.244999885559082 2.671999931335449,2.244999885559082 2.671999931335449,2.244999885559082"></path></g></g><g transform="matrix(2.540335178375244,-0.22180376946926117,0.22180376946926117,2.540335178375244,-15.992889404296875,-1414.309814453125)" opacity="1" style="display: block;"><g opacity="1" transform="matrix(1,0,0,1,0,0)"></g><g opacity="1" transform="matrix(1,0,0,1,0,0)"></g><g opacity="1" transform="matrix(1,0,0,1,0,0)"></g><g opacity="1" transform="matrix(1,0,0,1,0,0)"></g><g opacity="1" transform="matrix(1,0,0,1,47.82699966430664,633.0009765625)"><path fill="rgb(255,191,140)" fill-opacity="1" d=" M8.496000289916992,-8.836999893188477 C8.496000289916992,-8.836999893188477 -13.718000411987305,-3.2060000896453857 -13.718000411987305,-3.2060000896453857 C-13.718000411987305,-3.2060000896453857 -5.563000202178955,8.836999893188477 -5.563000202178955,8.836999893188477 C-5.563000202178955,8.836999893188477 13.718000411987305,3.7160000801086426 13.718000411987305,3.7160000801086426 C13.718000411987305,3.7160000801086426 8.496000289916992,-8.836999893188477 8.496000289916992,-8.836999893188477z"></path></g><g opacity="1" transform="matrix(1,0,0,1,27.434999465942383,657.27001953125)"><path fill="rgb(255,191,140)" fill-opacity="1" d=" M-2.752000093460083,3.2750000953674316 C-2.752000093460083,3.2750000953674316 -2.752000093460083,3.2750000953674316 -2.752000093460083,3.2750000953674316 C-4.203999996185303,2.055000066757202 -4.392000198364258,-0.11100000143051147 -3.171999931335449,-1.562999963760376 C-3.171999931335449,-1.562999963760376 -2.0869998931884766,-2.8550000190734863 -2.0869998931884766,-2.8550000190734863 C-0.8669999837875366,-4.307000160217285 1.2999999523162842,-4.494999885559082 2.752000093460083,-3.2750000953674316 C2.752000093460083,-3.2750000953674316 2.752000093460083,-3.2750000953674316 2.752000093460083,-3.2750000953674316 C4.203999996185303,-2.055000066757202 4.392000198364258,0.11100000143051147 3.171999931335449,1.562999963760376 C3.171999931335449,1.562999963760376 2.0869998931884766,2.8550000190734863 2.0869998931884766,2.8550000190734863 C0.8669999837875366,4.307000160217285 -1.2999999523162842,4.494999885559082 -2.752000093460083,3.2750000953674316z"></path></g><g opacity="1" transform="matrix(1,0,0,1,23.360000610351562,652.8359985351562)"><path fill="rgb(255,191,140)" fill-opacity="1" d=" M-3.249000072479248,3.867000102996826 C-3.249000072479248,3.867000102996826 -3.249000072479248,3.867000102996826 -3.249000072479248,3.867000102996826 C-4.701000213623047,2.6470000743865967 -4.888999938964844,0.47999998927116394 -3.6689999103546143,-0.972000002861023 C-3.6689999103546143,-0.972000002861023 -1.5889999866485596,-3.447000026702881 -1.5889999866485596,-3.447000026702881 C-0.36899998784065247,-4.89900016784668 1.7970000505447388,-5.086999893188477 3.249000072479248,-3.867000102996826 C3.249000072479248,-3.867000102996826 3.249000072479248,-3.867000102996826 3.249000072479248,-3.867000102996826 C4.701000213623047,-2.6470000743865967 4.888999938964844,-0.47999998927116394 3.6689999103546143,0.972000002861023 C3.6689999103546143,0.972000002861023 1.5889999866485596,3.447000026702881 1.5889999866485596,3.447000026702881 C0.36899998784065247,4.89900016784668 -1.7970000505447388,5.086999893188477 -3.249000072479248,3.867000102996826z"></path></g><g opacity="1" transform="matrix(1,0,0,1,18.719999313354492,648.93701171875)"><path fill="rgb(255,191,140)" fill-opacity="1" d=" M-3.249000072479248,3.867000102996826 C-3.249000072479248,3.867000102996826 -3.249000072479248,3.867000102996826 -3.249000072479248,3.867000102996826 C-4.701000213623047,2.6470000743865967 -4.888999938964844,0.47999998927116394 -3.6689999103546143,-0.972000002861023 C-3.6689999103546143,-0.972000002861023 -1.5889999866485596,-3.447000026702881 -1.5889999866485596,-3.447000026702881 C-0.36899998784065247,-4.89900016784668 1.7970000505447388,-5.086999893188477 3.249000072479248,-3.867000102996826 C3.249000072479248,-3.867000102996826 3.249000072479248,-3.867000102996826 3.249000072479248,-3.867000102996826 C4.701000213623047,-2.6470000743865967 4.888999938964844,-0.47999998927116394 3.6689999103546143,0.972000002861023 C3.6689999103546143,0.972000002861023 1.5889999866485596,3.447000026702881 1.5889999866485596,3.447000026702881 C0.36899998784065247,4.89900016784668 -1.7970000505447388,5.086999893188477 -3.249000072479248,3.867000102996826z"></path></g><g opacity="1" transform="matrix(1,0,0,1,28.215999603271484,637.02099609375)"><path fill="rgb(255,191,140)" fill-opacity="1" d=" M-7.306000232696533,2.4830000400543213 C-7.306000232696533,2.4830000400543213 -7.306000232696533,2.4830000400543213 -7.306000232696533,2.4830000400543213 C-7.915999889373779,0.6869999766349792 -6.954999923706055,-1.2640000581741333 -5.158999919891357,-1.8739999532699585 C-5.158999919891357,-1.8739999532699585 2.9489998817443848,-4.630000114440918 2.9489998817443848,-4.630000114440918 C4.744999885559082,-5.239999771118164 6.696000099182129,-4.2789998054504395 7.306000232696533,-2.4830000400543213 C7.306000232696533,-2.4830000400543213 7.306000232696533,-2.4830000400543213 7.306000232696533,-2.4830000400543213 C7.915999889373779,-0.6869999766349792 6.954999923706055,1.2640000581741333 5.158999919891357,1.8739999532699585 C5.158999919891357,1.8739999532699585 -2.9489998817443848,4.630000114440918 -2.9489998817443848,4.630000114440918 C-4.744999885559082,5.239999771118164 -6.696000099182129,4.2789998054504395 -7.306000232696533,2.4830000400543213z"></path></g><g opacity="1" transform="matrix(1,0,0,1,36.07699966430664,636.3569946289062)"><path fill="rgb(255,191,140)" fill-opacity="1" d=" M5.714000225067139,7.01200008392334 C5.714000225067139,7.01200008392334 7.190000057220459,3.930000066757202 8.642000198364258,-0.5910000205039978 C0.0949999988079071,-7.011000156402588 0.09600000083446503,-7.011000156402588 0.09600000083446503,-7.011000156402588 C0.09600000083446503,-7.011000156402588 -3.2330000400543213,-7.140999794006348 -8.642000198364258,-3.128000020980835 C-6.321000099182129,-2.5269999504089355 -4.255000114440918,-1.3650000095367432 -4.255000114440918,-1.3650000095367432 C-4.255000114440918,-1.3650000095367432 5.714000225067139,7.01200008392334 5.714000225067139,7.01200008392334z"></path></g><g opacity="1" transform="matrix(1,0,0,1,30.926000595092773,638.4580078125)"><path stroke-linecap="butt" stroke-linejoin="bevel" fill-opacity="0" stroke="rgb(247,247,247)" stroke-opacity="1" stroke-width="1" d=" M-4.814000129699707,-4.348999977111816 C-4.814000129699707,-4.348999977111816 -6.5320000648498535,-3.753000020980835 -8.187999725341797,-3.0360000133514404 C-9.642999649047852,-2.4059998989105225 -10.76200008392334,-0.7390000224113464 -9.888999938964844,1.3370000123977661 C-8.326000213623047,5.052000045776367 -1.597000002861023,1.274999976158142 -1.597000002861023,1.274999976158142 C-1.597000002861023,1.274999976158142 3.822000026702881,-1.0069999694824219 3.822000026702881,-1.0069999694824219 C3.822000026702881,-1.0069999694824219 5.452000141143799,0.19599999487400055 7.441999912261963,2.0350000858306885 C7.441999912261963,2.0350000858306885 10.196999549865723,4.348999977111816 10.196999549865723,4.348999977111816"></path></g><g opacity="1" transform="matrix(1,0,0,1,20.479999542236328,646.9869995117188)"><path stroke-linecap="butt" stroke-linejoin="bevel" fill-opacity="0" stroke="rgb(247,247,247)" stroke-opacity="1" stroke-width="1" d=" M-2.681999921798706,-1.4119999408721924 C-1.6030000448226929,-2.696000099182129 0.3140000104904175,-2.86299991607666 1.5980000495910645,-1.784000039100647 C2.881999969482422,-0.7049999833106995 3.0490000247955322,1.2120000123977661 1.9700000286102295,2.496000051498413"></path></g><g opacity="1" transform="matrix(1,0,0,1,25.131000518798828,650.89599609375)"><path stroke-linecap="butt" stroke-linejoin="bevel" fill-opacity="0" stroke="rgb(247,247,247)" stroke-opacity="1" stroke-width="1" d=" M-2.681999921798706,-1.4119999408721924 C-1.6030000448226929,-2.696000099182129 0.3140000104904175,-2.86299991607666 1.5980000495910645,-1.784000039100647 C2.881999969482422,-0.7049999833106995 3.0490000247955322,1.2120000123977661 1.9700000286102295,2.496000051498413"></path></g><g opacity="1" transform="matrix(1,0,0,1,28.555999755859375,655.6820068359375)"><path stroke-linecap="butt" stroke-linejoin="bevel" fill-opacity="0" stroke="rgb(247,247,247)" stroke-opacity="1" stroke-width="1" d=" M-2.681999921798706,-1.4119999408721924 C-1.6030000448226929,-2.696000099182129 0.3140000104904175,-2.86299991607666 1.5980000495910645,-1.784000039100647 C2.881999969482422,-0.7049999833106995 3.0490000247955322,1.2120000123977661 1.9700000286102295,2.496000051498413"></path></g></g><g transform="matrix(2.549999952316284,0,0,2.549999952316284,125.9906005859375,-1422.955078125)" opacity="1" style="display: block;"><g opacity="1" transform="matrix(0.9962099194526672,0.0869818702340126,-0.0869818702340126,0.9962099194526672,68.06040954589844,628.4676513671875)"><path fill="rgb(17,138,178)" fill-opacity="1" d=" M-24.65999984741211,-10.460000038146973 C-24.65999984741211,-10.460000038146973 -17.3799991607666,18.722999572753906 -17.3799991607666,18.722999572753906 C-17.3799991607666,18.722999572753906 12.73799991607666,11.208999633789062 12.73799991607666,11.208999633789062 C23.823999404907227,8.442999839782715 28.347000122070312,-4.853000164031982 21.246000289916992,-13.805000305175781 C21.246000289916992,-13.805000305175781 21.246000289916992,-13.805000305175781 21.246000289916992,-13.805000305175781 C18.100000381469727,-17.770999908447266 12.935999870300293,-19.548999786376953 8.015000343322754,-18.358999252319336 C8.015000343322754,-18.358999252319336 -24.65999984741211,-10.460000038146973 -24.65999984741211,-10.460000038146973z"></path></g></g><g transform="matrix(2.549999952316284,0,0,2.549999952316284,125.99014282226562,-1422.953857421875)" opacity="1" style="display: block;"><g opacity="1" transform="matrix(0.9998483061790466,0.017417505383491516,-0.017417505383491516,0.9998483061790466,-18.15723991394043,630.6452026367188)"><path fill="rgb(6,214,160)" fill-opacity="1" d=" M33.57400131225586,-8.406999588012695 C33.57400131225586,-8.406999588012695 26.29400062561035,20.774999618530273 26.29400062561035,20.774999618530273 C26.29400062561035,20.774999618530273 1.0369999408721924,14.090999603271484 1.0369999408721924,14.090999603271484 C-14.611000061035156,10.187000274658203 -20.541000366210938,-0.8500000238418579 -13.184000015258789,-12.347999572753906 C-13.184000015258789,-12.347999572753906 -13.184000015258789,-12.347999572753906 -13.184000015258789,-12.347999572753906 C-9.112000465393066,-16.19099998474121 -3.369999885559082,-17.708999633789062 2.069999933242798,-16.381999969482422 C2.069999933242798,-16.381999969482422 33.57400131225586,-8.406999588012695 33.57400131225586,-8.406999588012695z"></path></g></g></g></svg>
